<?xml version="1.0" encoding="utf-8"?>
<!-- Generator: Adobe Illustrator 16.0.0, SVG Export Plug-In . SVG Version: 6.00 Build 0)  -->
<!DOCTYPE svg PUBLIC "-//W3C//DTD SVG 1.1//EN" "http://www.w3.org/Graphics/SVG/1.1/DTD/svg11.dtd">
<svg version="1.1" id="Layer_1" xmlns="http://www.w3.org/2000/svg" xmlns:xlink="http://www.w3.org/1999/xlink" x="0px" y="0px"
	 width="150px" height="150px" viewBox="0 0 150 150" enable-background="new 0 0 150 150" xml:space="preserve">
<g>
	<circle fill="#1478FE" cx="75" cy="75" r="75"/>
	<g>
		<rect x="86.519" y="49.574" fill="#FFFFFF" width="24.505" height="5.695"/>
		<path fill="#FFFFFF" d="M66.924,72.467c1.895-0.97,3.33-2.041,4.302-3.213c1.741-2.093,2.612-4.859,2.612-8.304
			c0-3.341-0.863-6.211-2.59-8.608c-2.867-3.903-7.74-5.905-14.615-6.007H29.378v56.397h25.411c2.864,0,5.521-0.256,7.97-0.767
			c2.446-0.509,4.573-1.452,6.372-2.831c1.598-1.199,2.93-2.678,3.994-4.438c1.675-2.652,2.511-5.65,2.511-8.992
			c0-3.239-0.733-5.994-2.198-8.265C71.975,75.172,69.803,73.512,66.924,72.467z M40.627,56.129h12.268
			c2.701,0,4.924,0.293,6.664,0.881c2.021,0.842,3.029,2.576,3.029,5.203c0,2.372-0.764,4.023-2.29,4.955
			c-1.527,0.932-3.517,1.396-5.965,1.396H40.627V56.129z M60.03,91.941c-1.362,0.664-3.266,0.994-5.712,0.994H40.627V77.898h13.882
			c2.421,0.026,4.298,0.345,5.635,0.957c2.396,1.098,3.595,3.112,3.595,6.047C63.738,88.372,62.501,90.718,60.03,91.941z"/>
		<path fill="#FFFFFF" d="M119.817,76.664c-0.507-3.271-1.614-6.146-3.321-8.623c-1.894-2.811-4.299-4.865-7.207-6.169
			c-2.906-1.304-6.18-1.954-9.808-1.954c-6.109,0-11.084,1.928-14.913,5.783c-3.832,3.854-5.745,9.396-5.745,16.617
			c0,7.711,2.12,13.277,6.364,16.695c4.244,3.424,9.139,5.134,14.689,5.134c6.723,0,11.955-2.029,15.689-6.083
			c2.402-2.551,3.75-5.063,4.043-7.537h-11.133c-0.65,1.223-1.397,2.182-2.246,2.869c-1.55,1.273-3.568,1.91-6.053,1.91
			c-2.344,0-4.346-0.521-6.012-1.568c-2.74-1.682-4.192-4.617-4.362-8.798h30.375C120.231,81.337,120.114,78.58,119.817,76.664z
			 M90.073,77.748c0.396-2.717,1.362-4.867,2.903-6.455c1.541-1.59,3.712-2.384,6.51-2.384c2.572,0,4.729,0.749,6.465,2.249
			c1.737,1.497,2.708,3.693,2.906,6.59H90.073z"/>
	</g>
</g>
</svg>
