<?xml version="1.0" encoding="utf-8"?>
<!-- Generator: Adobe Illustrator 16.0.0, SVG Export Plug-In . SVG Version: 6.00 Build 0)  -->
<!DOCTYPE svg PUBLIC "-//W3C//DTD SVG 1.1//EN" "http://www.w3.org/Graphics/SVG/1.1/DTD/svg11.dtd">
<svg version="1.1" id="Layer_1" xmlns="http://www.w3.org/2000/svg" xmlns:xlink="http://www.w3.org/1999/xlink" x="0px" y="0px"
	 width="149.999px" height="150px" viewBox="0 0 149.999 150" enable-background="new 0 0 149.999 150" xml:space="preserve">
<g>
	<path fill="#EA4C89" d="M149.999,75c0,41.422-33.581,75-74.998,75C33.577,150,0,116.422,0,75C0,33.579,33.577,0,75.001,0
		C116.418,0,149.999,33.579,149.999,75z"/>
	<path id="dribbble-icon_1_" fill="#FFFFFF" d="M75.085,28.946c-25.609,0-46.369,20.76-46.369,46.367
		c0,25.608,20.76,46.368,46.369,46.368c25.606,0,46.367-20.76,46.367-46.368C121.452,49.706,100.691,28.946,75.085,28.946z
		 M113.278,73.154c-9.95-1.631-19.1-1.721-27.443-0.283c-0.943-2.177-1.921-4.345-2.961-6.49
		c8.921-3.863,16.093-9.112,21.436-15.771C109.522,56.769,112.798,64.59,113.278,73.154z M98.434,45.018
		C93.781,51.02,87.353,55.77,79.168,59.235c-3.927-7.19-8.413-14.203-13.479-21.01c3.011-0.765,6.147-1.216,9.396-1.216
		C83.872,37.01,91.959,40.018,98.434,45.018z M57.803,41.177c5.144,6.733,9.703,13.67,13.666,20.793
		c-9.39,2.764-20.6,4.186-33.556,4.272C40.587,55.286,47.967,46.176,57.803,41.177z M36.782,75.313c0-0.333,0.04-0.655,0.05-0.987
		c14.868-0.021,27.696-1.732,38.442-5.109c0.905,1.834,1.767,3.677,2.59,5.533c-13.056,4.082-23.82,12.446-32.212,25.039
		C40.118,93.148,36.782,84.615,36.782,75.313z M51.577,105.492c7.608-11.934,17.32-19.699,29.357-23.291
		c3.582,9.352,6.217,18.971,7.889,28.825c-4.271,1.651-8.894,2.593-13.738,2.593C66.222,113.619,58.075,110.563,51.577,105.492z
		 M96.345,107.154c-1.693-9.092-4.175-17.98-7.418-26.652c7.244-1.021,15.226-0.757,23.95,0.76
		C111.188,92.027,105.04,101.326,96.345,107.154z"/>
</g>
</svg>
