<?xml version="1.0" encoding="utf-8"?>
<!-- Generator: Adobe Illustrator 16.0.0, SVG Export Plug-In . SVG Version: 6.00 Build 0)  -->
<!DOCTYPE svg PUBLIC "-//W3C//DTD SVG 1.1//EN" "http://www.w3.org/Graphics/SVG/1.1/DTD/svg11.dtd">
<svg version="1.1" id="Layer_1" xmlns="http://www.w3.org/2000/svg" xmlns:xlink="http://www.w3.org/1999/xlink" x="0px" y="0px"
	 width="150px" height="150px" viewBox="0 0 150 150" enable-background="new 0 0 150 150" xml:space="preserve">
<g>
	<circle fill="#3C5A9B" cx="75" cy="75" r="75"/>
	<path fill="#FFFFFF" d="M88.352,44.296c4.579,0,10.63,0,10.63,0V28.433c0,0-6.378,0-15.045,0c-8.668,0-19.952,5.561-19.952,21.75
		c0,3.027,0,7.432,0,12.592H49.593v16.436h14.391c0,20.467,0,42.766,0,42.766h6.378h5.07h5.723c0,0,0-23.1,0-42.766h14.311
		l2.371-16.436H81.155c0-5.401,0-9.303,0-10.466C81.155,46.912,83.772,44.296,88.352,44.296z"/>
</g>
</svg>
