<?xml version="1.0" encoding="utf-8"?>
<!-- Generator: Adobe Illustrator 16.0.0, SVG Export Plug-In . SVG Version: 6.00 Build 0)  -->
<!DOCTYPE svg PUBLIC "-//W3C//DTD SVG 1.1//EN" "http://www.w3.org/Graphics/SVG/1.1/DTD/svg11.dtd">
<svg version="1.1" id="Layer_1" xmlns="http://www.w3.org/2000/svg" xmlns:xlink="http://www.w3.org/1999/xlink" x="0px" y="0px"
	 width="150px" height="149.999px" viewBox="0 0 150 149.999" enable-background="new 0 0 150 149.999" xml:space="preserve">
<g>
	<circle fill="#2D2D37" cx="75" cy="74.999" r="75"/>
	<g>
		<path fill="#FFFFFF" d="M75,27.5c-26.233,0-47.5,21.267-47.5,47.501c0,20.646,13.175,38.215,31.576,44.762
			c0.092,0.032,0.421,0.146,0.495,0.169c0.271,0.088,0.562,0.136,0.863,0.136c1.544,0,2.795-1.251,2.795-2.794
			c0-0.075-0.006-0.148-0.012-0.222h0.012c0-2.51,0-5.706,0-8.258c-3.017,0.619-7.602,1.199-10.092,0
			c-3.236-1.558-4.852-3.552-6.43-7.482c-1.92-4.783-6.381-6.081-6.549-6.928c-0.17-0.847,4.703-2.101,7.227,0.79
			s5.08,8.694,10.501,8.13c2.663-0.277,4.396-0.69,5.474-1.04c0.219-1.881,0.808-4.179,2.38-5.822
			c-12.75-2.106-21.228-8.969-21.228-22.421c0-6.11,1.752-10.859,4.855-14.424c-0.513-2.918-1.396-9.715,0.941-12.111
			c0,0,3.311-2.041,12.791,4.637c3.537-0.814,7.457-1.217,11.668-1.244v-0.006c0.078,0,0.152,0.004,0.23,0.004
			s0.153-0.004,0.231-0.004v0.006c4.211,0.027,8.132,0.43,11.669,1.244c9.481-6.678,12.791-4.637,12.791-4.637
			c2.339,2.396,1.455,9.193,0.941,12.112c3.104,3.563,4.855,8.313,4.855,14.423c0,13.452-8.478,20.314-21.229,22.421
			c2.441,2.55,2.512,6.684,2.512,8.369c0,1.622,0,12.388,0,12.463c0,1.543,1.251,2.794,2.795,2.794c0.229,0,0.45-0.027,0.662-0.08
			c0.051-0.012,0.246-0.066,0.295-0.082c18.611-6.433,31.978-24.107,31.978-44.904C122.5,48.767,101.233,27.5,75,27.5z"/>
	</g>
</g>
</svg>
