<?xml version="1.0" encoding="utf-8"?>
<!-- Generator: Adobe Illustrator 16.0.0, SVG Export Plug-In . SVG Version: 6.00 Build 0)  -->
<!DOCTYPE svg PUBLIC "-//W3C//DTD SVG 1.1//EN" "http://www.w3.org/Graphics/SVG/1.1/DTD/svg11.dtd">
<svg version="1.1" id="Layer_1" xmlns="http://www.w3.org/2000/svg" xmlns:xlink="http://www.w3.org/1999/xlink" x="0px" y="0px"
	 width="150px" height="150px" viewBox="0 0 150 150" enable-background="new 0 0 150 150" xml:space="preserve">
<g>
	<circle fill="#F03232" cx="75" cy="75" r="75"/>
	<path fill="#FFFFFF" d="M56.908,81.843h20.023c-2.612,8.982-10.478,15.344-20.023,15.344c-12.091,0-21.928-9.837-21.928-21.929
		c0-12.091,9.837-21.928,21.928-21.928c5.225,0,10.283,1.867,14.246,5.256l8.637-10.095c-6.367-5.447-14.494-8.447-22.883-8.447
		c-19.417,0-35.214,15.797-35.214,35.214s15.797,35.215,35.214,35.215c19.197,0,34.234-15.468,34.234-35.215V70.15H56.908V81.843z
		 M118.493,70.209V60.44h-10.098v9.769h-9.769v10.097h9.769v9.77h10.098v-9.77h9.769V70.209H118.493z"/>
</g>
</svg>
