<?xml version="1.0" encoding="utf-8"?>
<!-- Generator: Adobe Illustrator 16.0.0, SVG Export Plug-In . SVG Version: 6.00 Build 0)  -->
<!DOCTYPE svg PUBLIC "-//W3C//DTD SVG 1.1//EN" "http://www.w3.org/Graphics/SVG/1.1/DTD/svg11.dtd">
<svg version="1.1" id="Layer_1" xmlns="http://www.w3.org/2000/svg" xmlns:xlink="http://www.w3.org/1999/xlink" x="0px" y="0px"
	 width="150px" height="150px" viewBox="0 0 150 150" enable-background="new 0 0 150 150" xml:space="preserve">
<g>
	<circle fill="#286991" cx="75" cy="74.999" r="75"/>
	<path fill="#FFFFFF" d="M99.516,35H50.484C41.969,35,35,41.968,35,50.483v49.032C35,108.031,41.969,115,50.484,115h49.031
		c8.518,0,15.484-6.969,15.484-15.484V50.483C115,41.968,108.033,35,99.516,35z M88.838,49.22c0-2.909,2.381-5.287,5.287-5.287
		h4.621c2.906,0,5.287,2.378,5.287,5.287v4.621c0,2.907-2.381,5.286-5.287,5.286h-4.621c-2.906,0-5.287-2.379-5.287-5.286V49.22z
		 M75.001,63.34c7.607,0,13.775,6.167,13.775,13.776c0,7.607-6.168,13.775-13.775,13.775s-13.775-6.168-13.775-13.775
		C61.226,69.507,67.394,63.34,75.001,63.34z M108.549,99.516c0,4.98-4.053,9.032-9.033,9.032H50.484
		c-4.98,0-9.033-4.052-9.033-9.032V67.177h14.178c-1.533,2.98-2.403,6.357-2.403,9.94c0,12.024,9.75,21.774,21.775,21.774
		s21.775-9.75,21.775-21.774c0-3.583-0.87-6.96-2.403-9.94h14.176V99.516z"/>
</g>
</svg>
