<?xml version="1.0" encoding="utf-8"?>
<!-- Generator: Adobe Illustrator 16.0.0, SVG Export Plug-In . SVG Version: 6.00 Build 0)  -->
<!DOCTYPE svg PUBLIC "-//W3C//DTD SVG 1.1//EN" "http://www.w3.org/Graphics/SVG/1.1/DTD/svg11.dtd">
<svg version="1.1" id="Layer_1" xmlns="http://www.w3.org/2000/svg" xmlns:xlink="http://www.w3.org/1999/xlink" x="0px" y="0px"
	 width="150px" height="150px" viewBox="0 0 150 150" enable-background="new 0 0 150 150" xml:space="preserve">
<g>
	<circle fill="#0087AF" cx="75" cy="75" r="75"/>
	<path id="linkedin-square-rounded-icon_1_" fill="#FFFFFF" d="M54.721,108.899H39.521V59.799h15.199V108.899z M47.048,53.367
		c-4.964,0-8.987-4.055-8.987-9.06c0-5.003,4.023-9.06,8.987-9.06s8.987,4.057,8.987,9.06
		C56.035,49.313,52.012,53.367,47.048,53.367z M111.676,108.899H96.551c0,0,0-18.704,0-25.775c0-7.067-2.686-11.015-8.275-11.015
		c-6.083,0-9.26,4.109-9.26,11.015c0,7.563,0,25.775,0,25.775H64.438V59.799h14.577v6.612c0,0,4.383-8.112,14.796-8.112
		c10.41,0,17.864,6.359,17.864,19.512C111.676,90.961,111.676,108.899,111.676,108.899z"/>
</g>
</svg>
