<?xml version="1.0" encoding="utf-8"?>
<!-- Generator: Adobe Illustrator 16.0.0, SVG Export Plug-In . SVG Version: 6.00 Build 0)  -->
<!DOCTYPE svg PUBLIC "-//W3C//DTD SVG 1.1//EN" "http://www.w3.org/Graphics/SVG/1.1/DTD/svg11.dtd">
<svg version="1.1" id="Layer_1" xmlns="http://www.w3.org/2000/svg" xmlns:xlink="http://www.w3.org/1999/xlink" x="0px" y="0px"
	 width="150px" height="150px" viewBox="0 0 150 150" enable-background="new 0 0 150 150" xml:space="preserve">
<g>
	<circle fill="#1AB2E8" cx="75" cy="75" r="75"/>
	<path id="twitter-4-icon_3_" fill="#FFFFFF" d="M105.017,59.453c0.974,21.642-15.169,45.774-43.735,45.774
		c-8.689,0-16.781-2.549-23.588-6.918c8.162,0.964,16.309-1.299,22.781-6.37c-6.735-0.123-12.416-4.571-14.376-10.687
		c2.411,0.462,4.784,0.328,6.949-0.264c-7.399-1.484-12.511-8.154-12.343-15.281c2.077,1.153,4.448,1.846,6.97,1.924
		c-6.852-4.579-8.792-13.627-4.762-20.543c7.592,9.311,18.929,15.437,31.716,16.077c-2.24-9.626,5.058-18.894,14.992-18.894
		c4.425,0,8.422,1.869,11.229,4.859c3.504-0.69,6.796-1.972,9.772-3.734c-1.15,3.592-3.591,6.61-6.766,8.515
		c3.11-0.372,6.077-1.201,8.835-2.425C110.631,54.575,108.023,57.285,105.017,59.453z"/>
</g>
</svg>
