<?xml version="1.0" encoding="utf-8"?>
<!-- Generator: Adobe Illustrator 16.0.0, SVG Export Plug-In . SVG Version: 6.00 Build 0)  -->
<!DOCTYPE svg PUBLIC "-//W3C//DTD SVG 1.1//EN" "http://www.w3.org/Graphics/SVG/1.1/DTD/svg11.dtd">
<svg version="1.1" id="Layer_1" xmlns="http://www.w3.org/2000/svg" xmlns:xlink="http://www.w3.org/1999/xlink" x="0px" y="0px"
	 width="150px" height="150px" viewBox="0 0 150 150" enable-background="new 0 0 150 150" xml:space="preserve">
<g>
	<circle fill="#F03232" cx="75" cy="75" r="75"/>
	<g>
		<path fill="#FFFFFF" d="M114.576,56.997c-0.684-5.833-2.082-7.536-3.069-8.313c-1.585-1.236-4.457-1.664-8.29-1.926
			c-6.166-0.421-16.598-0.668-27.898-0.668c-11.303,0-21.729,0.247-27.895,0.668c-3.831,0.262-6.706,0.689-8.291,1.926
			c-0.989,0.776-2.384,2.479-3.072,8.313c-0.987,8.408-0.987,27.576,0,35.986c0.688,5.83,2.083,7.533,3.072,8.307
			c1.585,1.243,4.46,1.67,8.291,1.934c6.165,0.415,16.592,0.665,27.895,0.665c11.306,0,21.732-0.25,27.898-0.665
			c3.833-0.264,6.705-0.69,8.29-1.934c0.987-0.773,2.386-2.477,3.069-8.307C115.568,84.573,115.568,65.405,114.576,56.997z
			 M65.668,87.57V62.407L89.8,74.988L65.668,87.57z"/>
	</g>
</g>
</svg>
